<svg width="108" height="109" viewBox="0 0 108 109" fill="none" xmlns="http://www.w3.org/2000/svg">
<path d="M27 0.5C12.0883 0.5 0 12.5883 0 27.5C0 42.4119 12.0883 54.5 27 54.5C12.0883 54.5 0 66.5881 0 81.5C0 96.4119 12.0883 108.5 27 108.5C41.9119 108.5 54 96.4119 54 81.5C54 96.4119 66.0881 108.5 81 108.5C95.9119 108.5 108 96.4119 108 81.5C108 66.5881 95.9119 54.5 81 54.5C95.9119 54.5 108 42.4119 108 27.5C108 12.5883 95.9119 0.5 81 0.5C66.0881 0.5 54 12.5883 54 27.5C54 12.5883 41.9119 0.5 27 0.5Z" fill="white"/>
</svg>
