<svg width="379" height="97" viewBox="0 0 379 97" fill="none" xmlns="http://www.w3.org/2000/svg">
<path d="M59.432 5.144V22.68H22.824V41.624H50.216V58.648H22.824V95H0.936V5.144H59.432ZM116.76 95L98.072 61.08H92.824V95H70.936V5.144H107.672C114.755 5.144 120.771 6.38133 125.72 8.856C130.755 11.3307 134.509 14.744 136.984 19.096C139.459 23.3627 140.696 28.1413 140.696 33.432C140.696 39.4053 138.989 44.7387 135.576 49.432C132.248 54.1253 127.299 57.4533 120.728 59.416L141.464 95H116.76ZM92.824 45.592H106.392C110.403 45.592 113.389 44.6107 115.352 42.648C117.4 40.6853 118.424 37.912 118.424 34.328C118.424 30.9147 117.4 28.2267 115.352 26.264C113.389 24.3013 110.403 23.32 106.392 23.32H92.824V45.592ZM153.412 60.184C153.412 53.016 154.82 46.744 157.636 41.368C160.537 35.992 164.505 31.8533 169.54 28.952C174.66 26.0507 180.463 24.6 186.948 24.6C194.031 24.6 200.175 26.392 205.38 29.976C210.585 33.4747 214.255 38.04 216.388 43.672V0.279999H222.148V95H216.388V76.568C214.34 82.2853 210.756 86.9787 205.636 90.648C200.516 94.232 194.287 96.024 186.948 96.024C180.463 96.024 174.66 94.5733 169.54 91.672C164.505 88.6853 160.537 84.504 157.636 79.128C154.82 73.6667 153.412 67.352 153.412 60.184ZM216.388 60.184C216.388 54.1253 215.108 48.792 212.548 44.184C210.073 39.4907 206.66 35.9067 202.308 33.432C197.956 30.872 193.092 29.592 187.716 29.592C182.084 29.592 177.135 30.8293 172.868 33.304C168.601 35.6933 165.273 39.192 162.884 43.8C160.495 48.408 159.3 53.8693 159.3 60.184C159.3 66.4987 160.495 71.96 162.884 76.568C165.273 81.176 168.601 84.7173 172.868 87.192C177.22 89.6667 182.169 90.904 187.716 90.904C193.092 90.904 197.956 89.6667 202.308 87.192C206.745 84.632 210.201 81.048 212.676 76.44C215.151 71.7467 216.388 66.328 216.388 60.184ZM305.713 55.576C305.713 58.648 305.628 60.952 305.457 62.488H245.425C245.596 68.7173 246.961 73.9653 249.521 78.232C252.081 82.4987 255.452 85.6987 259.633 87.832C263.814 89.9653 268.38 91.032 273.329 91.032C280.156 91.032 285.873 89.368 290.481 86.04C295.089 82.6267 297.99 78.0187 299.185 72.216H305.201C303.836 79.2987 300.337 85.0587 294.705 89.496C289.073 93.848 281.948 96.024 273.329 96.024C266.844 96.024 261.041 94.5733 255.921 91.672C250.801 88.7707 246.79 84.632 243.889 79.256C240.988 73.7947 239.537 67.4373 239.537 60.184C239.537 52.9307 240.945 46.616 243.761 41.24C246.662 35.864 250.673 31.768 255.793 28.952C260.913 26.0507 266.758 24.6 273.329 24.6C279.985 24.6 285.745 26.0507 290.609 28.952C295.558 31.768 299.313 35.5653 301.873 40.344C304.433 45.0373 305.713 50.1147 305.713 55.576ZM299.953 57.752C300.209 51.608 299.1 46.4027 296.625 42.136C294.236 37.8693 290.95 34.712 286.769 32.664C282.588 30.5307 278.065 29.464 273.201 29.464C268.337 29.464 263.814 30.5307 259.633 32.664C255.537 34.712 252.166 37.8693 249.521 42.136C246.961 46.4027 245.596 51.608 245.425 57.752H299.953ZM346.673 88.728L372.273 25.496H378.417L349.617 95H343.601L314.801 25.496H321.073L346.673 88.728Z" fill="white"/>
</svg>
